<?xml version="1.0" standalone="no"?>
<!DOCTYPE svg PUBLIC "-//W3C//DTD SVG 20010904//EN"
 "http://www.w3.org/TR/2001/REC-SVG-20010904/DTD/svg10.dtd">
<svg version="1.0" xmlns="http://www.w3.org/2000/svg"
 width="599.000000pt" height="600.000000pt" viewBox="0 0 599.000000 600.000000"
 preserveAspectRatio="xMidYMid meet">

<g transform="translate(0.000000,600.000000) scale(0.100000,-0.100000)"
fill="#ffffff" stroke="none">
<path d="M2785 5970 c-74 -12 -180 -43 -269 -80 -235 -98 -469 -340 -596 -615
-59 -128 -64 -140 -98 -240 -63 -182 -106 -398 -119 -601 -5 -85 -8 -95 -27
-99 -12 -3 -349 -6 -751 -8 -656 -2 -734 -4 -765 -19 -59 -28 -86 -55 -114
-114 -31 -66 -33 -124 -10 -349 7 -71 20 -224 29 -340 8 -115 20 -255 25 -310
5 -55 14 -167 20 -250 14 -192 29 -383 41 -510 5 -55 14 -167 19 -250 5 -82
16 -224 24 -315 8 -91 22 -250 31 -355 8 -104 22 -264 30 -355 8 -91 17 -205
20 -255 12 -174 35 -360 51 -405 44 -125 97 -215 173 -291 80 -81 142 -118
266 -160 l70 -24 2145 0 2145 0 70 24 c164 55 281 142 361 266 34 53 48 81 85
170 33 81 53 231 78 585 6 74 15 189 20 255 6 66 13 158 16 205 3 47 10 130
15 185 5 55 12 132 14 170 6 79 8 102 76 900 20 234 60 731 64 805 7 100 15
196 27 300 28 252 -6 363 -126 417 -37 17 -92 18 -784 21 -459 2 -749 6 -756
12 -7 6 -15 56 -18 117 -15 258 -116 613 -238 840 -203 376 -492 607 -839 669
-80 14 -322 17 -405 4z m361 -286 c284 -58 527 -305 665 -676 29 -77 75 -227
85 -273 23 -107 45 -259 47 -322 l2 -78 -960 0 -960 0 1 60 c3 169 68 475 139
655 76 192 213 385 347 487 98 76 248 140 363 156 72 10 199 6 271 -9z m138
-2100 c175 -30 448 -140 523 -210 27 -26 33 -39 33 -74 0 -36 -6 -48 -40 -82
-36 -36 -44 -40 -78 -35 -20 3 -73 26 -116 51 -154 88 -347 144 -531 153 -293
14 -572 -117 -666 -312 -78 -164 -53 -284 88 -415 117 -109 272 -181 633 -295
376 -119 654 -284 784 -469 186 -264 168 -562 -49 -782 -197 -199 -485 -293
-863 -281 -195 6 -329 31 -512 97 -192 69 -430 200 -467 257 -35 53 -14 117
49 149 48 25 82 17 185 -44 286 -168 537 -242 820 -242 188 0 303 25 453 98
188 93 297 281 261 454 -40 197 -201 336 -566 494 -31 13 -166 58 -340 113
-198 63 -427 179 -545 276 -269 220 -291 544 -57 817 119 140 336 256 537 288
146 23 315 21 464 -6z"/>
</g>
</svg>
