<?xml version="1.0" standalone="no"?>
<!DOCTYPE svg PUBLIC "-//W3C//DTD SVG 20010904//EN"
 "http://www.w3.org/TR/2001/REC-SVG-20010904/DTD/svg10.dtd">
<svg version="1.0" xmlns="http://www.w3.org/2000/svg"
 width="512.000000pt" height="512.000000pt" viewBox="0 0 512.000000 512.000000"
 preserveAspectRatio="xMidYMid meet">

<g transform="translate(0.000000,512.000000) scale(0.100000,-0.100000)"
fill="#ffffff" stroke="none">
<path d="M1880 5101 c-245 -53 -452 -193 -588 -400 -94 -143 -152 -330 -152
-493 l0 -78 -270 0 -269 0 -5 -32 c-15 -93 -256 -3047 -251 -3076 7 -38 55
-96 99 -120 27 -15 76 -17 404 -20 299 -3 373 -1 377 10 2 7 50 560 105 1228
56 668 106 1228 112 1243 23 60 -25 57 1073 57 l1005 0 0 355 0 355 -269 0
-268 0 -6 113 c-13 240 -102 440 -269 607 -216 216 -535 313 -828 251z m411
-191 c118 -39 215 -100 301 -187 140 -143 202 -286 215 -490 l6 -103 84 0 83
0 0 -175 c0 -173 0 -176 -25 -200 -33 -34 -87 -34 -120 0 -25 24 -25 27 -25
200 l0 175 -750 0 -750 0 0 -175 c0 -173 0 -176 -25 -200 -16 -17 -35 -25 -60
-25 -25 0 -44 8 -60 25 -25 24 -25 27 -25 200 l0 175 83 0 84 0 6 103 c7 119
32 208 90 322 58 112 190 245 302 302 147 74 231 94 386 88 86 -3 125 -10 200
-35z"/>
<path d="M1596 3228 c-12 -58 -258 -3069 -253 -3090 12 -45 52 -93 97 -115
l44 -23 1576 0 c1512 0 1577 1 1616 19 47 22 80 59 95 110 9 29 -14 329 -115
1546 -70 831 -129 1525 -132 1543 l-5 32 -1459 0 -1460 0 -4 -22z m684 -238
c11 -11 22 -30 25 -42 2 -13 6 -178 8 -368 4 -381 6 -398 72 -536 89 -185 261
-332 460 -394 88 -27 247 -37 340 -21 285 50 517 262 602 550 13 45 17 125 22
424 l6 369 24 19 c48 39 121 15 137 -45 3 -13 4 -183 1 -377 -4 -379 -6 -395
-65 -547 -98 -253 -336 -463 -617 -544 -68 -19 -103 -23 -235 -23 -131 0 -167
4 -234 23 -328 94 -565 331 -657 657 -21 75 -23 103 -27 452 l-3 372 25 26
c32 31 87 34 116 5z"/>
</g>
</svg>
