<svg width="0" height="0" class="hidden">
  <symbol xmlns="http://www.w3.org/2000/svg" viewBox="0 0 100 100" id="address">
    <path d="M49,18.92A23.74,23.74,0,0,0,25.27,42.77c0,16.48,17,31.59,22.23,35.59a2.45,2.45,0,0,0,3.12,0c5.24-4.12,22.1-19.11,22.1-35.59A23.74,23.74,0,0,0,49,18.92Zm0,33.71a10,10,0,1,1,10-10A10,10,0,0,1,49,52.63Z"></path>
  </symbol>
  <symbol role="img" xmlns="http://www.w3.org/2000/svg" viewBox="0 0 24 24" id="facebook">
    <path d="M24 12.073c0-6.627-5.373-12-12-12s-12 5.373-12 12c0 5.99 4.388 10.954 10.125 11.854v-8.385H7.078v-3.47h3.047V9.43c0-3.007 1.792-4.669 4.533-4.669 1.312 0 2.686.235 2.686.235v2.953H15.83c-1.491 0-1.956.925-1.956 1.874v2.25h3.328l-.532 3.47h-2.796v8.385C19.612 23.027 24 18.062 24 12.073z"></path>
  </symbol>
  <symbol xmlns="http://www.w3.org/2000/svg" viewBox="0 0 24 24" id="instagram">
    <path fill-rule="evenodd" d="M8,2 L16,2 C19.3137085,2 22,4.6862915 22,8 L22,16 C22,19.3137085 19.3137085,22 16,22 L8,22 C4.6862915,22 2,19.3137085 2,16 L2,8 C2,4.6862915 4.6862915,2 8,2 Z M8,4 C5.790861,4 4,5.790861 4,8 L4,16 C4,18.209139 5.790861,20 8,20 L16,20 C18.209139,20 20,18.209139 20,16 L20,8 C20,5.790861 18.209139,4 16,4 L8,4 Z M12,17 C9.23857625,17 7,14.7614237 7,12 C7,9.23857625 9.23857625,7 12,7 C14.7614237,7 17,9.23857625 17,12 C17,14.7614237 14.7614237,17 12,17 Z M12,15 C13.6568542,15 15,13.6568542 15,12 C15,10.3431458 13.6568542,9 12,9 C10.3431458,9 9,10.3431458 9,12 C9,13.6568542 10.3431458,15 12,15 Z M17,8 C16.4477153,8 16,7.55228475 16,7 C16,6.44771525 16.4477153,6 17,6 C17.5522847,6 18,6.44771525 18,7 C18,7.55228475 17.5522847,8 17,8 Z"></path>
  </symbol>
  <symbol version="1.1" id="phone" xmlns="http://www.w3.org/2000/svg" xmlns:xlink="http://www.w3.org/1999/xlink" x="0px" y="0px" xml:space="preserve" viewBox="0 0 59.942 59.942">
    <g>
      <path d="M44.076,37.816c-0.896-0.51-1.831-0.78-2.706-0.78c-1.301,0-2.366,0.596-3.011,1.68c-1.02,1.22-2.285,2.646-2.592,2.867
		c-2.376,1.612-4.236,1.429-6.294-0.629L17.987,29.467c-2.045-2.045-2.233-3.928-0.632-6.291c0.224-0.309,1.65-1.575,2.87-2.596
		c0.778-0.463,1.312-1.151,1.546-1.995c0.311-1.123,0.082-2.444-0.652-3.731c-0.173-0.296-4.291-7.27-8.085-9.277
		c-0.708-0.375-1.506-0.573-2.306-0.573c-1.318,0-2.558,0.514-3.49,1.445L4.7,8.986c-4.014,4.013-5.467,8.562-4.321,13.52
		c0.956,4.132,3.742,8.529,8.282,13.068l14.705,14.705c5.746,5.746,11.224,8.66,16.282,8.66c0,0,0,0,0,0
		c3.721,0,7.188-1.581,10.306-4.698l2.537-2.537c1.541-1.541,1.891-3.87,0.872-5.796C51.356,42.112,44.383,37.996,44.076,37.816z"></path>
      <path d="M58.942,38.003c-3.69,0-6.693-3.003-6.693-6.693c0-0.553-0.447-1-1-1s-1,0.447-1,1c0,4.794,3.899,8.693,8.693,8.693
		c0.553,0,1-0.447,1-1S59.495,38.003,58.942,38.003z"></path>
      <path d="M58.196,35.662c0.553,0,1-0.447,1-1s-0.447-1-1-1c-0.886,0-1.605-0.72-1.605-1.605c0-0.553-0.447-1-1-1s-1,0.447-1,1
		C54.591,34.044,56.208,35.662,58.196,35.662z"></path>
      <path d="M19.942,3.003c3.691,0,6.693,3.003,6.693,6.693c0,0.553,0.448,1,1,1s1-0.447,1-1c0-4.794-3.9-8.693-8.693-8.693
		c-0.552,0-1,0.447-1,1S19.39,3.003,19.942,3.003z"></path>
      <path d="M19.689,6.345c0,0.553,0.448,1,1,1c0.885,0,1.604,0.72,1.604,1.605c0,0.553,0.448,1,1,1s1-0.447,1-1
		c0-1.988-1.617-3.605-3.604-3.605C20.137,5.345,19.689,5.792,19.689,6.345z"></path>
    </g>
    <g></g>
    <g></g>
    <g></g>
    <g></g>
    <g></g>
    <g></g>
    <g></g>
    <g></g>
    <g></g>
    <g></g>
    <g></g>
    <g></g>
    <g></g>
    <g></g>
    <g></g>
  </symbol>
  <symbol version="1.1" id="shopping-bag" xmlns="http://www.w3.org/2000/svg" xmlns:xlink="http://www.w3.org/1999/xlink" x="0px" y="0px" xml:space="preserve" viewBox="0 0 490.027 490.027">
    <path d="M417.111,476.606l-38.357-329.119c-0.598-5.144-4.959-9.027-10.138-9.027h-40.971
	c-8.048-63.833-25.108-106.365-42.058-123.011c-10.703-10.507-24.61-15.916-39.264-15.418c-15.707,0.608-31.075,8.254-42.165,20.975
	c-23.249,26.67-34.935,75.125-40.811,117.453h-42.138c-5.179,0-9.541,3.883-10.138,9.027L72.479,478.61
	c-0.843,8.578,7.161,11.747,10.138,11.39h324.589c0.075-0.005,0.135-0.01,0.205,0C413.267,490,419.423,484.625,417.111,476.606z
	 M219.55,34.426c7.407-8.498,17.456-13.599,27.565-13.992c9.002-0.24,17.426,2.96,24.166,9.58
	c11.816,11.605,27.789,47.98,35.762,108.446H183.989C189.485,99.759,199.88,56.986,219.55,34.426z M130.296,158.877h30.582
	c-3.376,32.497-3.471,57.73-3.471,60.169h20.417c0-0.596,0.1-26.846,3.638-60.169h127.867c1.693,18.214,2.672,38.271,2.672,60.169
	h20.417c0-21.539-0.924-41.622-2.581-60.169h29.692l25.543,219.184H104.753L130.296,158.877z M94.088,469.583l8.286-71.105H387.45
	l8.286,71.105H94.088z"></path>
    <g></g>
    <g></g>
    <g></g>
    <g></g>
    <g></g>
    <g></g>
    <g></g>
    <g></g>
    <g></g>
    <g></g>
    <g></g>
    <g></g>
    <g></g>
    <g></g>
    <g></g>
  </symbol>
</svg>