<svg width="0" height="0" class="hidden">
  <symbol version="1.0" xmlns="http://www.w3.org/2000/svg" preserveAspectRatio="xMidYMid meet" viewBox="0 0 64.000000 64.000000" id="facebook">
    <metadata>Created by potrace 1.16, written by Peter Selinger 2001-2019</metadata>
    <g transform="translate(0.000000,64.000000) scale(0.100000,-0.100000)" stroke="none">
      <path d="M235 567 c-119 -47 -182 -145 -173 -266 9 -118 85 -208 201 -236 l27
-7 0 101 0 101 -35 0 c-31 0 -35 3 -35 25 0 22 4 25 35 25 l35 0 0 49 c0 59
26 96 73 105 46 9 67 -1 67 -30 0 -21 -5 -24 -34 -24 -38 0 -46 -12 -46 -66 0
-32 2 -34 35 -34 31 0 35 -3 35 -25 0 -22 -4 -25 -35 -25 l-35 0 0 -101 0
-101 28 7 c77 19 143 71 178 141 26 54 26 174 0 228 -25 50 -73 97 -122 121
-47 23 -156 30 -199 12z"></path>
    </g>
  </symbol>
  <symbol xmlns="http://www.w3.org/2000/svg" viewBox="0 0 32 32" id="instagram">
    <path d="M 11.46875 5 C 7.917969 5 5 7.914063 5 11.46875 L 5 20.53125 C 5 24.082031 7.914063 27 11.46875 27 L 20.53125 27 C 24.082031 27 27 24.085938 27 20.53125 L 27 11.46875 C 27 7.917969 24.085938 5 20.53125 5 Z M 11.46875 7 L 20.53125 7 C 23.003906 7 25 8.996094 25 11.46875 L 25 20.53125 C 25 23.003906 23.003906 25 20.53125 25 L 11.46875 25 C 8.996094 25 7 23.003906 7 20.53125 L 7 11.46875 C 7 8.996094 8.996094 7 11.46875 7 Z M 21.90625 9.1875 C 21.402344 9.1875 21 9.589844 21 10.09375 C 21 10.597656 21.402344 11 21.90625 11 C 22.410156 11 22.8125 10.597656 22.8125 10.09375 C 22.8125 9.589844 22.410156 9.1875 21.90625 9.1875 Z M 16 10 C 12.699219 10 10 12.699219 10 16 C 10 19.300781 12.699219 22 16 22 C 19.300781 22 22 19.300781 22 16 C 22 12.699219 19.300781 10 16 10 Z M 16 12 C 18.222656 12 20 13.777344 20 16 C 20 18.222656 18.222656 20 16 20 C 13.777344 20 12 18.222656 12 16 C 12 13.777344 13.777344 12 16 12 Z"></path>
  </symbol>
  <symbol version="1.0" xmlns="http://www.w3.org/2000/svg" preserveAspectRatio="xMidYMid meet" viewBox="0 0 64.000000 64.000000" id="shopping-bag">
    <metadata>Created by potrace 1.16, written by Peter Selinger 2001-2019</metadata>
    <g transform="translate(0.000000,64.000000) scale(0.100000,-0.100000)" stroke="none">
      <path d="M234 606 c-29 -29 -34 -41 -34 -80 l0 -46 -50 0 -50 0 0 -171 c0
-132 3 -170 13 -167 9 4 13 46 15 156 l3 152 34 0 c34 0 35 -1 35 -40 0 -29 4
-40 15 -40 12 0 15 17 15 89 0 82 2 92 26 120 54 64 154 22 154 -65 l0 -34
-80 0 c-64 0 -80 -3 -80 -15 0 -12 16 -15 80 -15 l80 0 0 -40 c0 -29 4 -40 15
-40 12 0 15 18 15 101 l0 101 -34 34 c-30 30 -40 34 -86 34 -46 0 -56 -4 -86
-34z"></path>
      <path d="M460 465 c0 -9 9 -15 25 -15 l25 0 -2 -207 -3 -208 -185 0 c-168 0
-185 2 -188 17 -3 17 10 18 162 18 141 0 166 2 166 15 0 13 -27 15 -180 15
l-180 0 0 -38 c0 -21 5 -43 12 -50 17 -17 399 -17 416 0 9 9 12 76 12 240 l0
228 -40 0 c-29 0 -40 -4 -40 -15z"></path>
    </g>
  </symbol>
</svg>